<svg id="Capa_1" enable-background="new 0 0 512 512" height="512" viewBox="0 0 512 512" width="512" xmlns="http://www.w3.org/2000/svg"><g><g><path d="m128.888 166.665s-28.05-37.79-29.252-92.45c-.067-3.058 2.643-5.438 5.673-5.021 6.266.862 16.729 1.597 26.371-1.003 29.465-7.945 58.456-66.401 109.534-68.104 51.078-1.703 60.983 22.134 60.983 22.134s18.79-11.17 46.848-7.378c41.997 5.675 78.887 69.657 41.394 157.551z" fill="#e5907b"/><g><path d="m114.763 183.919c0 19.85 15.405 30.12 28.959 30.12 0 0 14.63-13.007 14.635-12.763 0-.082-.006-.162-.006-.243l9-18.581-9-15.905c-4.341-2.387-9.326-3.748-14.63-3.748-13.553 0-25.031 8.87-28.958 21.12z" fill="#ebbaa1"/><path d="m143.723 205.039c-13.554 0-25.032-8.87-28.959-21.12-.939 2.929-1.451 6.049-1.451 9.29 0 16.795 13.615 30.41 30.41 30.41 5.985 0 11.561-1.736 16.266-4.721l7.856-8.052-9.487-9.571c-4.343 2.393-9.327 3.764-14.635 3.764z" fill="#e8a990"/><path d="m397.237 183.919c0 19.85-15.405 30.12-28.96 30.12 0 0-14.63-13.007-14.635-12.763 0-.082.006-.162.006-.243l-9-18.581 9-15.905c4.341-2.387 9.326-3.748 14.63-3.748 13.554 0 25.032 8.87 28.959 21.12z" fill="#ebbaa1"/><path d="m368.277 205.039c13.554 0 25.033-8.87 28.96-21.12.939 2.929 1.451 6.049 1.451 9.29 0 16.795-13.615 30.41-30.41 30.41-5.985 0-11.561-1.736-16.266-4.721l-7.856-8.052 9.487-9.571c4.342 2.393 9.326 3.764 14.634 3.764z" fill="#e8a990"/></g><path d="m256 289.099c53.929 0 97.648-33.099 97.648-106.647v-28.036c0-8.548-3.48-16.773-9.762-22.568-18.233-16.82-38.53-45.919-46.683-58.071-1.872-2.79-5.844-3.05-8.113-.572-41.13 44.921-94.406 59.891-118.246 64.548-7.263 1.419-12.49 7.791-12.49 15.191v29.508c-.002 64.917 43.717 106.647 97.646 106.647z" fill="#fdd4bb"/><path d="m301.733 287.322c-13.644 7.246-29.207 11.357-45.733 11.357-16.526 0-32.089-4.111-45.733-11.357-65.893 13.795-115.383 72.222-115.383 142.214v63.884l161.116 9 161.116-9v-63.884c0-69.993-49.489-128.42-115.383-142.214z" fill="#b3e59f"/><path d="m94.884 512 55.124-9.29 29.709 9.29h152.566l34.448-9.29 50.385 9.29v-18.581h-322.232z" fill="#95d6a4"/><path d="m209.961 287.16c-.093 1.201-.156 2.41-.156 3.634 0 25.513 20.682 46.195 46.195 46.195s46.195-20.682 46.195-46.195c0-1.224-.062-2.434-.156-3.634z" fill="#ebbaa1"/><path d="m256 215.809c-15.377 0-28.185 10.997-30.989 25.555-.598 3.107 1.74 6.004 4.904 6.004h52.17c3.164 0 5.502-2.897 4.904-6.004-2.804-14.558-15.613-25.555-30.989-25.555z" fill="#f4594e"/><path d="m374.742 271.425 23.245 18.165c-.049.201-.087.406-.131.609.094-.029.184-.058.279-.087.282 12.655 11.974 22.113 20.931 22.551 4.117.201 8.027-.597 11.513-2.17 1.699-.767 3.674-.574 5.171.536 4.695 3.48 10.506 5.541 16.799 5.541 12.617 0 26.927-10.93 26.927-28.687.075-.02.155-.034.231-.053-.802-2.574-1.967-4.986-3.44-7.177 1.687-3.428 2.531-7.345 2.201-11.494-.828-10.419-9.111-18.947-19.499-20.102-4.497-.5-8.735.391-12.401 2.248-3.382-7.826-11.164-13.306-20.232-13.306-12.171 0-22.037 9.867-22.037 22.037 0 .73.042 1.449.111 2.161h-26.49c-4.908 0-7.046 6.206-3.178 9.228z" fill="#ebf2f8"/><path d="m134.08 262.197h-26.49c.07-.711.111-1.431.111-2.161 0-12.171-9.867-22.037-22.037-22.037-9.068 0-16.85 5.48-20.232 13.306-3.666-1.857-7.904-2.748-12.401-2.248-10.388 1.155-18.672 9.682-19.5 20.102-.33 4.149.514 8.066 2.201 11.494-1.421 2.114-2.549 4.44-3.347 6.913 0 18.074 14.361 28.728 27.012 28.728 6.315 0 12.145-2.068 16.857-5.559 1.504-1.115 3.487-1.308 5.193-.539 3.497 1.578 7.42 2.379 11.552 2.177 9.015-.44 21.038-11.061 21.038-22.668-.009-.038-.016-.078-.025-.116l23.245-18.165c3.868-3.021 1.731-9.227-3.177-9.227z" fill="#ebf2f8"/><path d="m401.005 493.419-80.023-93.759s20.918-27.254 7.708-40.464c-9.193-9.193-27.904-.227-38.438 6.079 6.333 19.468.768 45.085-27.981 63.787l54.327 64.357 50.133 9.29z" fill="#ebbaa1"/><path d="m256 336.99c-35.377 0-50.362 33.669-50.362 33.669s-14.439-20.119-27.649-6.909c-13.21 13.211 7.977 41.83 7.977 41.83l-74.971 87.84 39.014 9.29 45.447-9.29 45.334-53.523c80.082-31.112 52.715-102.907 15.21-102.907z" fill="#fdd4bb"/><path d="m110.994 493.419-15.858 18.581h84.581l15.738-18.581z" fill="#f7c4a8"/><path d="m256 280.099c-53.929 0-97.648-43.718-97.648-97.647v18.581c0 53.929 43.718 97.647 97.647 97.647 53.929 0 97.647-43.718 97.647-97.647v-18.581c.001 53.928-43.717 97.647-97.646 97.647z" fill="#f7c4a8"/><path d="m316.598 493.419 15.684 18.581h84.582l-15.859-18.581z" fill="#e8a990"/><g><path d="m92.999 303.374c-4.131.202-8.054-.599-11.552-2.177-1.706-.77-3.689-.576-5.193.539-4.711 3.492-10.541 5.559-16.857 5.559-12.651 0-23.363-8.288-27.012-19.729-1.269 3.931-1.7 8.238-1.017 12.728 1.9 12.49 12.288 22.225 24.875 23.313 8.223.711 15.772-2.185 21.258-7.274 4.261 2.608 9.379 3.952 14.837 3.499 9.852-.818 18.313-7.699 21.267-17.132 1.434-4.581 1.402-8.97.433-12.995-4.045 7.831-12.024 13.229-21.039 13.669z" fill="#d6e3ed"/></g><g><path d="m452.581 307.36c-6.32 0-12.155-2.069-16.871-5.565-1.504-1.115-3.487-1.309-5.193-.538-3.5 1.58-7.427 2.382-11.562 2.18-8.995-.439-16.961-5.81-21.019-13.608-.945 4.011-.961 8.38.48 12.939 2.975 9.406 11.427 16.255 21.259 17.066 5.453.45 10.566-.894 14.824-3.5 5.488 5.091 13.04 7.987 21.266 7.273 12.577-1.091 22.957-10.811 24.864-23.291.686-4.488.258-8.795-1.006-12.727-3.645 11.464-14.372 19.771-27.042 19.771z" fill="#d6e3ed"/></g></g><g fill="#565e75"><path d="m199.873 184.69c.178-.049 1.66-.464 3.958-1.369v1.093c0 4.284 3.473 7.757 7.757 7.757s7.757-3.473 7.757-7.757v-9.85c1.867-1.426 3.746-3.026 5.577-4.824 3.056-3.002 3.1-7.914.098-10.97-3.002-3.055-7.912-3.1-10.97-.098-8.253 8.107-18.044 10.987-18.292 11.058-4.115 1.14-6.536 5.395-5.411 9.518.941 3.449 4.068 5.716 7.479 5.716.676.001 1.364-.088 2.047-.274z"/><path d="m292.654 174.564v9.85c0 4.284 3.473 7.757 7.757 7.757s7.757-3.473 7.757-7.757v-1.093c2.298.905 3.78 1.32 3.958 1.369.684.187 1.371.276 2.047.276 3.411 0 6.537-2.268 7.479-5.716 1.128-4.133-1.308-8.398-5.441-9.526-.097-.026-9.944-2.879-18.263-11.05-3.055-3.002-7.968-2.958-10.97.098s-2.958 7.968.099 10.969c1.831 1.797 3.71 3.397 5.577 4.823z"/></g></g></svg>