<svg id="Capa_1" enable-background="new 0 0 512 512" height="512" viewBox="0 0 512 512" width="512" xmlns="http://www.w3.org/2000/svg"><g><path d="m294.823.152c-68.801-2.543-79.183 27.644-112.49 36.117-15.381 3.913-30.447.616-43.446-5.222-13.923-6.253-27.606 9.048-19.695 22.1 9.206 15.188 22.307 30.842 40.727 42.418v-.001c0 .001 173.459 171.493 173.459 171.493s77.35-50.043 84.838-119.736c7.796-72.569-39.743-144.077-123.393-147.169z" fill="#565e75"/><path d="m300.191 200.734c14.318-4.26 24.608-17.872 23.773-33.757-.896-17.051-14.879-30.84-31.939-31.518-9.975-.396-19.02 3.594-25.373 10.195-2.299 2.388-6.205 2.037-7.933-.792l-17.808-29.146c-.971-1.589-2.745-2.491-4.604-2.381-32.293 1.906-57.22-5.724-76.388-17.771v114.236c0 2.59 1.988 4.735 4.568 4.96 8.338.727 26.098 3.601 36.271 14.955 2.219 2.476 1.432 6.397-1.563 7.84l-24.772 11.942c-2.716 1.309-3.666 4.709-2.025 7.238 12.481 19.242 33.236 32.619 57.233 35.07v21.788l103.747-26.878v-19.659l-36.01-58.938c-1.707-2.792-.315-6.451 2.823-7.384z" fill="#fdd4bb"/><g><path d="m229.631 313.594v18.581l103.747-26.878v-18.581c-3.327-2.068-6.831-3.729-10.526-4.921-29.895-9.643-63.978 3.385-93.221 31.799z" fill="#f7c4a8"/></g><g><path d="m222.551 181.337-7.468-4.204 7.22-3.726c3.807-1.964 5.301-6.643 3.337-10.45s-6.644-5.301-10.45-3.337l-20.006 10.322c-2.535 1.308-4.147 3.901-4.199 6.753s1.465 5.502 3.951 6.901l20.006 11.26c1.203.677 2.509.999 3.798.999 2.71 0 5.343-1.423 6.767-3.954 2.1-3.733.777-8.463-2.956-10.564z" fill="#565e75"/><g fill="#adf0ff"><path d="m138.975 243.829c-1.643-3.957-6.182-5.833-10.139-4.189l-22.318 9.269c-3.957 1.643-5.832 6.182-4.189 10.139 1.239 2.984 4.126 4.784 7.167 4.784.991 0 1.999-.191 2.972-.595l22.318-9.269c3.957-1.644 5.832-6.183 4.189-10.139z"/><path d="m127.004 224.489c3.481 0 6.648-2.361 7.523-5.893 1.031-4.158-1.505-8.365-5.663-9.395l-26.285-6.515c-4.158-1.032-8.365 1.504-9.395 5.663-1.031 4.158 1.505 8.365 5.663 9.395l26.285 6.515c.626.155 1.254.23 1.872.23z"/><path d="m152.024 266.666c-3.464-2.523-8.315-1.762-10.837 1.701l-15.947 21.887c-2.523 3.462-1.761 8.314 1.701 10.837 3.427 2.507 8.3 1.783 10.837-1.701l15.947-21.887c2.524-3.462 1.762-8.314-1.701-10.837z"/></g></g><path d="m394.362 493.419c-2.672-48.207-15.041-174.828-71.511-193.044-66.671-21.507-154.198 69.685-162.321 193.044l122.444 9.29z" fill="#ffa6d5"/><path d="m160.531 493.419c-.293 4.453-.484 8.947-.566 13.479-.051 2.8 2.204 5.102 5.005 5.102h62.104l55.902-9.29 55.902 9.29h51.083c2.825 0 5.088-2.333 4.998-5.157-.102-3.196-.282-7.771-.595-13.424z" fill="#ff90d1"/><path d="m331.135 493.419-48.16 9.291-48.159-9.291v-29.427h96.319z" fill="#fdd4bb"/><path d="m234.816 493.419h96.319v18.581h-96.319z" fill="#f7c4a8"/><path d="m338.877 493.419v-88.807c0-4.276-3.466-7.742-7.742-7.742s-7.742 3.466-7.742 7.742v88.807l7.741 9.29z" fill="#ff83d0"/><path d="m242.558 493.419v-88.807c0-4.276-3.466-7.742-7.742-7.742s-7.742 3.466-7.742 7.742v88.807l7.742 9.29z" fill="#ff83d0"/><g fill="#f26bcc"><path d="m227.074 493.419h15.484v18.581h-15.484z"/><path d="m323.393 493.419h15.484v18.581h-15.484z"/></g></g></svg>