<svg id="Capa_1" enable-background="new 0 0 512 512" height="512" viewBox="0 0 512 512" width="512" xmlns="http://www.w3.org/2000/svg"><g><g><path d="m63.432 55.742c-12.495 0-22.625 10.129-22.625 22.625v34.883l22.625 9 22.625-9v-34.883c0-12.495-10.129-22.625-22.625-22.625z" fill="#ebf2f8"/><path d="m27.167 224.847c0 23.352 18.806 37.123 36.266 37.123s36.266-15.892 36.266-37.123c-2.119-8.309-7.011-15.51-13.641-20.549v-91.048h-45.25v91.049c-6.631 5.038-11.522 12.239-13.641 20.548z" fill="#f4594e"/><g><path d="m346.628 287.322c-13.644 7.247-29.207 11.358-45.733 11.358-16.526 0-32.089-4.111-45.733-11.358-65.894 13.795-115.383 72.222-115.383 142.214v35.359l9 28.524 152.116 9 152.116-9 9-28.524v-35.359c0-69.992-49.49-128.42-115.383-142.214z" fill="#976eca"/><path d="m173.877 166.665s-28.05-37.79-29.252-92.45c-.067-3.058 2.643-5.438 5.673-5.021 6.266.862 16.73 1.597 26.371-1.003 29.465-7.945 58.456-66.401 109.534-68.104s60.983 22.134 60.983 22.134 18.79-11.17 46.848-7.378c41.997 5.675 78.887 69.656 41.393 157.551z" fill="#e5907b"/><path d="m159.863 183.919c0 18.953 15.405 30.12 28.96 30.12l14.635-12.763c0-.082 12.766-17.275 12.766-17.357l-12.772-17.372c-4.341-2.387-9.326-3.747-14.63-3.747-13.554-.001-25.032 8.869-28.959 21.119z" fill="#ebbaa1"/><path d="m188.822 205.039c-13.554 0-25.033-8.87-28.96-21.12-.939 2.929-1.451 6.049-1.451 9.29 0 16.795 13.615 30.41 30.41 30.41 5.985 0 11.561-1.736 16.266-4.721l7.973-10.631-9.603-6.992c-4.342 2.393-9.326 3.764-14.635 3.764z" fill="#e8a990"/><path d="m442.337 183.919c0 18.953-15.405 30.12-28.96 30.12l-14.635-12.763c0-.082-12.766-17.275-12.766-17.357l12.772-17.372c4.341-2.387 9.326-3.747 14.63-3.747 13.554-.001 25.032 8.869 28.959 21.119z" fill="#ebbaa1"/><path d="m413.377 205.039c13.554 0 25.033-8.87 28.96-21.12.939 2.929 1.451 6.049 1.451 9.29 0 16.795-13.615 30.41-30.41 30.41-5.985 0-11.561-1.736-16.266-4.721l-7.973-10.631 9.603-6.992c4.343 2.393 9.327 3.764 14.635 3.764z" fill="#e8a990"/><path d="m300.99 289.099c53.929 0 97.648-41.575 97.648-106.647v-28.036c0-8.548-3.48-16.773-9.762-22.568-18.233-16.82-38.53-45.919-46.683-58.071-1.872-2.79-5.844-3.05-8.113-.572-41.13 44.921-94.407 59.891-118.246 64.549-7.263 1.419-12.49 7.791-12.49 15.191v29.508c-.002 64.326 43.717 106.646 97.646 106.646z" fill="#fdd4bb"/><path d="m221.758 512h158.684l7.742-9.29-7.742-9.291h-158.684l-7.742 9.291z" fill="#8665c6"/><path d="m462.106 493.419-37.016 9-37.016-9v-28.524h74.032z" fill="#fdd4bb"/><path d="m139.874 493.419 37.016 9 37.016-9v-28.524h-74.032z" fill="#fdd4bb"/><path d="m462.106 493.419h-66.181l-7.742 9.29 7.742 9.29h61.181c2.761 0 5-2.239 5-5z" fill="#f7c4a8"/><path d="m139.874 493.419h66.401l7.742 9.29-7.742 9.29h-61.401c-2.761 0-5-2.239-5-5z" fill="#f7c4a8"/><path d="m254.951 287.16c-.094 1.201-.156 2.41-.156 3.634 0 25.513 20.682 46.195 46.195 46.195s46.195-20.682 46.195-46.195c0-1.224-.062-2.434-.156-3.634z" fill="#ebbaa1"/><path d="m300.99 280.099c-53.929 0-97.648-43.718-97.648-97.647v18.581c0 53.929 43.718 97.647 97.647 97.647 53.929 0 97.647-43.718 97.647-97.647v-18.581c.001 53.928-43.717 97.647-97.646 97.647z" fill="#f7c4a8"/><g><path d="m395.925 493.419v-72.792c0-4.276-3.466-7.742-7.742-7.742s-7.742 3.466-7.742 7.742v72.792l7.742 9.29z" fill="#755ab7"/><path d="m380.442 493.419h15.484v18.581h-15.484z" fill="#6753a5"/><path d="m221.758 493.419v-72.792c0-4.276-3.466-7.742-7.742-7.742s-7.742 3.466-7.742 7.742v72.792l7.742 9.29z" fill="#755ab7"/><path d="m206.274 493.419h15.484v18.581h-15.484z" fill="#6753a5"/></g></g><path d="m254.032 127.84h93.726c8.516 0 15.484-10.991 15.484-24.484v-16.37c0-8.516-6.968-15.484-15.484-15.484h-93.726c-8.516 0-15.484 6.968-15.484 15.484v16.37c0 18.581 6.967 24.484 15.484 24.484z" fill="#adf0ff"/><path d="m63.432 252.971c-17.46 0-32.127-11.954-36.266-28.123-.756 2.965-1.168 6.068-1.168 9.27 0 20.674 16.76 37.434 37.434 37.434s37.434-16.76 37.434-37.434c0-3.201-.412-6.304-1.168-9.27-4.139 16.169-18.806 28.123-36.266 28.123z" fill="#e84642"/><path d="m347.757 118.84h-93.726c-8.516 0-15.484-6.968-15.484-15.484v18.581c0 8.516 6.968 15.484 15.484 15.484h93.726c8.516 0 15.484-6.968 15.484-15.484v-18.581c0 8.516-6.967 15.484-15.484 15.484z" fill="#8deaf5"/></g><g><path d="m243.751 187.785c.522-.063 12.911-1.599 23.819-6.343 3.929-1.709 5.728-6.279 4.02-10.207-1.709-3.929-6.28-5.73-10.207-4.02-8.785 3.82-19.394 5.156-19.5 5.169-4.249.518-7.276 4.38-6.763 8.631.476 3.937 3.823 6.827 7.691 6.827.311 0 .624-.019.94-.057z" fill="#565e75"/><path d="m334.409 181.442c10.907 4.744 23.297 6.28 23.82 6.343.316.038.629.057.94.057 3.868 0 7.216-2.891 7.691-6.828.513-4.253-2.518-8.118-6.771-8.631-.105-.013-10.64-1.318-19.493-5.168-3.933-1.711-8.499.091-10.207 4.02-1.708 3.928.091 8.498 4.02 10.207z" fill="#565e75"/><g fill="#f4594e"><path d="m285.875 248.874c4.285 0 7.757-3.473 7.757-7.757 0-5.314 3.37-9.803 7.358-9.803 3.989 0 7.358 4.489 7.358 9.803 0 4.284 3.473 7.757 7.757 7.757s7.757-3.473 7.757-7.757c0-13.96-10.26-25.317-22.872-25.317s-22.872 11.357-22.872 25.317c0 4.284 3.472 7.757 7.757 7.757z"/><path d="m174.651 252.871c3.133-2.881 3.361-7.753.5-10.915-2.876-3.177-7.781-3.42-10.956-.547-.512.463-12.488 11.511-9.587 27.142 1.458 7.863 5.012 12.211 7.607 15.385 2.642 3.233 4.098 5.014 4.098 10.894 0 4.284 3.472 7.757 7.757 7.757s7.757-3.473 7.757-7.757c0-11.413-4.214-16.569-7.6-20.712-2.187-2.675-3.631-4.443-4.364-8.396-1.29-6.94 4.579-12.651 4.788-12.851z"/><path d="m427.754 274.119c-3.387 4.143-7.6 9.299-7.6 20.712 0 4.284 3.473 7.757 7.757 7.757 4.285 0 7.757-3.473 7.757-7.757 0-5.88 1.456-7.661 4.098-10.894 2.595-3.174 6.148-7.522 7.607-15.384 2.901-15.632-9.077-26.68-9.588-27.143-3.177-2.875-8.108-2.654-10.982.523-2.875 3.177-2.655 8.059.521 10.933.062.058 6.1 5.827 4.796 12.857-.735 3.953-2.179 5.721-4.366 8.396z"/><path d="m476.671 249.028c-.382-.493-.852-.929-1.325-1.327-1.315-1.02-2.971-1.622-4.764-1.622-4.294 0-7.775 3.481-7.775 7.775 0 2.099.836 4.001 2.188 5.4 0 0 .118.121.179.18 1.053 1.065 6.365 6.972 5.124 16.557-.791 6.115-3.929 10.017-7.902 14.956-5.123 6.37-11.499 14.297-11.499 27.736 0 4.284 3.473 7.757 7.757 7.757 4.285 0 7.757-3.473 7.757-7.757 0-7.973 3.563-12.403 8.074-18.012 4.616-5.738 9.848-12.243 11.199-22.689 1.978-15.284-5.79-25.463-9.013-28.954z"/><path d="m143.327 326.44c4.285 0 7.757-3.473 7.757-7.757 0-13.438-6.376-21.366-11.499-27.736-3.973-4.939-7.112-8.841-7.902-14.956-1.241-9.585 4.071-15.492 5.124-16.557.061-.059.179-.18.179-.18 1.352-1.399 2.188-3.301 2.188-5.4 0-4.294-3.481-7.775-7.775-7.775-1.793 0-3.448.602-4.764 1.622-.474.398-.944.834-1.325 1.327-3.222 3.491-10.991 13.67-9.012 28.954 1.351 10.446 6.583 16.95 11.199 22.689 4.511 5.609 8.074 10.039 8.074 18.012-.002 4.284 3.471 7.757 7.756 7.757z"/></g></g></g></svg>