<svg id="Capa_1" enable-background="new 0 0 512 512" height="512" viewBox="0 0 512 512" width="512" xmlns="http://www.w3.org/2000/svg"><g><g><path d="m295.898.152c-68.801-2.543-79.183 27.644-112.49 36.117-15.381 3.913-30.447.616-43.446-5.222-13.924-6.253-27.606 9.048-19.694 22.101 9.206 15.187 22.307 30.841 40.726 42.417s173.458 171.493 173.458 171.493 77.35-50.043 84.838-119.736c7.797-72.57-39.742-144.078-123.392-147.17z" fill="#e5907b"/><path d="m230.706 313.594 103.746-26.878v-19.659l-36.01-58.938c-1.707-2.793-.314-6.452 2.824-7.385 14.318-4.26 24.607-17.871 23.773-33.756-.896-17.051-14.878-30.841-31.939-31.519-9.975-.397-19.02 3.594-25.374 10.195-2.299 2.388-6.204 2.037-7.933-.792l-17.808-29.146c-.971-1.589-2.745-2.491-4.604-2.381-32.292 1.906-57.22-5.724-76.387-17.771v112.251l8.92 8.008-8.478 7.023c3.878 36.371 32.852 65.241 69.27 68.96z" fill="#fdd4bb"/><g><path d="m230.706 313.594v18.581l103.746-26.878v-18.581c-3.327-2.068-6.831-3.729-10.526-4.921-29.894-9.643-63.977 3.385-93.22 31.799z" fill="#f7c4a8"/></g><path d="m395.437 493.419c-2.672-48.207-15.041-174.828-71.511-193.044-66.67-21.507-154.198 69.685-162.321 193.044l122.445 9.581z" fill="#976eca"/><path d="m161.606 493.419c-.293 4.453-.484 8.947-.566 13.479-.051 2.8 2.204 5.102 5.005 5.102h62.104l55.902-9 55.902 9h51.083c2.825 0 5.088-2.333 4.998-5.157-.102-3.196-.282-7.772-.595-13.424z" fill="#8665c6"/><path d="m332.21 493.419-48.16 9.581-48.159-9.581v-29.427h96.319z" fill="#fdd4bb"/><path d="m243.632 512h80.836l7.742-9.29-7.742-9.291h-80.836l-7.741 9.291z" fill="#f7c4a8"/><g><path d="m339.952 493.419v-88.808c0-4.276-3.466-7.742-7.742-7.742s-7.742 3.466-7.742 7.742v88.808l7.742 9.29z" fill="#755ab7"/><path d="m243.632 493.419v-88.808c0-4.276-3.466-7.742-7.742-7.742s-7.742 3.466-7.742 7.742v88.808l7.742 9.29z" fill="#755ab7"/><g fill="#6753a5"><path d="m228.149 493.419h15.484v18.581h-15.484z"/><path d="m324.468 493.419h15.484v18.581h-15.484z"/></g></g></g><g><path d="m223.632 181.336-7.469-4.204 7.221-3.726c3.807-1.964 5.301-6.643 3.337-10.45s-6.642-5.3-10.45-3.337l-20.006 10.322c-5.405 2.574-5.555 10.885-.248 13.653l20.006 11.26c3.664 2.083 8.452.814 10.564-2.955 2.102-3.732.779-8.462-2.955-10.563z" fill="#565e75"/><g fill="#f4594e"><path d="m353.425 139.939c3.611 2.187 8.424 1.051 10.645-2.653l12.193-20.289c3.167-4.917-.803-11.935-6.649-11.753h-7.472l6.278-10.479c2.202-3.675 1.008-8.439-2.668-10.641-3.673-2.201-8.439-1.008-10.641 2.667l-13.314 22.222c-3.16 4.917.814 11.926 6.654 11.744h7.451l-5.131 8.537c-2.207 3.672-1.019 8.438 2.654 10.645z"/><path d="m249.998 87.775c3.611 2.187 8.425 1.05 10.645-2.653l12.193-20.289c3.167-4.917-.803-11.936-6.649-11.753h-7.472l6.278-10.479c2.202-3.675 1.008-8.439-2.667-10.641-3.675-2.203-8.439-1.007-10.641 2.667l-13.315 22.222c-3.159 4.917.813 11.926 6.654 11.744h7.451l-5.131 8.537c-2.206 3.672-1.018 8.438 2.654 10.645z"/><path d="m120.81 126.499h-7.472l6.278-10.479c2.202-3.675 1.007-8.439-2.667-10.641-3.675-2.202-8.44-1.007-10.641 2.667l-13.314 22.224c-3.159 4.917.813 11.926 6.654 11.744h7.451l-5.13 8.537c-2.206 3.673-1.019 8.438 2.653 10.645 1.251.751 2.628 1.11 3.988 1.109 2.633 0 5.202-1.341 6.657-3.762l12.193-20.29c3.167-4.918-.805-11.936-6.65-11.754z"/></g><path d="m276.341 255.826v7.502c0 4.284 3.472 7.757 7.757 7.757s7.757-3.473 7.757-7.757v-7.502c0-4.284-3.473-7.757-7.757-7.757s-7.757 3.473-7.757 7.757z" fill="#b3e59f"/><path d="m261.406 227.005c-4.284 0-7.757 3.473-7.757 7.757v7.502c0 4.284 3.473 7.757 7.757 7.757 4.285 0 7.757-3.473 7.757-7.757v-7.502c0-4.284-3.473-7.757-7.757-7.757z" fill="#b3e59f"/></g><path d="m187.535 232.664c1.167 2.943 3.989 4.738 6.974 4.737.92 0 1.855-.17 2.763-.53 3.851-1.527 5.734-5.886 4.207-9.736-7.753-19.554-30.304-20.131-40.485-19.32v6.698c0 2.816.165 5.593.457 8.331 6.357-.587 21.853-.85 26.084 9.82z" fill="#f4594e"/></g></svg>