<svg id="Capa_1" enable-background="new 0 0 512 512" height="512" viewBox="0 0 512 512" width="512" xmlns="http://www.w3.org/2000/svg"><g><g><path d="m216.571 428.99c0 45.472 21.564 57.269 45.483 57.269 20.311 0 35.73-9.172 42.697-14.238 2.318-1.686 5.559-1.116 7.224 1.217 11.622 16.277 24.251 29.472 52.101 29.472s40.48-13.195 52.101-29.472c1.665-2.333 4.906-2.902 7.224-1.217 6.967 5.066 22.386 14.238 42.697 14.238 23.918 0 45.483-19.345 45.483-57.269-4.214-43.115-39.574-66.366-49.516-84.971-29.081-54.419-30.607-223.5-97.989-223.5s-68.908 169.081-97.989 223.5c-9.942 18.605-45.302 41.857-49.516 84.971z" fill="#fdd4bb"/><path d="m466.098 476.969c-20.311 0-35.73-9.172-42.697-14.238-2.318-1.685-5.559-1.116-7.224 1.217-11.622 16.277-24.251 29.472-52.101 29.472-27.851 0-40.48-13.195-52.102-29.472-1.665-2.332-4.906-2.902-7.224-1.217-6.967 5.066-22.386 14.238-42.696 14.238-23.919 0-42.537-13.103-45.483-47.979-.269 2.756-.419 5.588-.419 8.51 0 42.47 19.803 58.05 45.902 58.05 14.029 0 25.724-4.376 33.912-8.752l3.733-7.87s9.137-.883 9.137-.884c12.601 18.267 24.871 33.956 55.24 33.956s42.639-15.689 55.24-33.956l9.439.74 3.36 7.975c8.192 4.389 19.914 8.791 33.984 8.791 26.099 0 45.902-15.58 45.902-58.05 0-2.922-.15-5.754-.419-8.51-2.947 34.877-21.565 47.979-45.484 47.979z" fill="#f7c4a8"/><path d="m.542 72.28c0 47.544 39.121 81.57 81.028 81.57 41.906 0 81.028-36.14 81.028-81.57-4.614-40.673-39.122-72.28-81.028-72.28-41.907 0-76.414 31.607-81.028 72.28z" fill="#f4594e"/><path d="m298.297 466.914c-14.203-11.353-29.858-12.524-30.692-12.578-4.267-.275-7.948 2.966-8.22 7.233s2.966 7.947 7.233 8.22c.43.032 6.989.595 14.58 4.427l13.027.967z" fill="#e8a990"/><path d="m81.57 144.559c-41.906 0-76.414-31.607-81.028-72.28-.346 3.051-.542 6.148-.542 9.291 0 45.05 36.52 81.57 81.57 81.57s81.57-36.52 81.57-81.57c0-3.143-.196-6.239-.542-9.29-4.614 40.672-39.122 72.279-81.028 72.279z" fill="#e84642"/><path d="m308.838 478.043c-3.221-4.516-6.832-8.164-10.54-11.129-4.48 2.596-10.268 5.334-17.099 7.302 4.98 2.514 10.405 6.432 14.839 12.542 8.144-4.364 12.799-8.715 12.799-8.715z" fill="#e5967a"/><path d="m429.855 466.914c14.203-11.353 29.858-12.524 30.692-12.578 4.267-.275 7.948 2.966 8.22 7.233s-2.966 7.947-7.233 8.22c-.43.032-6.988.595-14.58 4.427l-13.027.967z" fill="#e8a990"/><path d="m419.314 478.043c3.221-4.516 6.832-8.164 10.54-11.129 4.48 2.596 10.268 5.334 17.099 7.302-4.98 2.514-10.405 6.432-14.839 12.542-8.144-4.364-12.799-8.715-12.799-8.715z" fill="#e5967a"/></g><g><path d="m117.552 44.905c-3.029-3.029-7.941-3.029-10.97 0l-25.354 25.354-25.353-25.354c-3.029-3.029-7.941-3.029-10.97 0-3.03 3.029-3.03 7.941 0 10.97l25.353 25.353-25.353 25.353c-3.03 3.029-3.03 7.941 0 10.97 1.514 1.514 3.5 2.272 5.485 2.272s3.97-.758 5.485-2.272l25.353-25.353 25.353 25.353c1.514 1.514 3.5 2.272 5.485 2.272s3.97-.758 5.485-2.272c3.03-3.029 3.03-7.941 0-10.97l-25.353-25.352 25.353-25.353c3.03-3.03 3.03-7.942.001-10.971z" fill="#ebf2f8"/><g fill="#adf0ff"><path d="m177.495 340.111c8.762-7.63 13.788-18.67 13.788-30.288-.001-11.618-5.026-22.658-13.788-30.288-3.232-2.814-8.132-2.476-10.944.756-2.813 3.231-2.475 8.131.756 10.944 5.377 4.682 8.461 11.458 8.462 18.587 0 7.13-3.084 13.906-8.462 18.589-8.762 7.63-13.787 18.67-13.787 30.288s5.025 22.658 13.787 30.287c1.47 1.28 3.284 1.908 5.091 1.908 2.165 0 4.319-.901 5.853-2.663 2.814-3.23 2.476-8.13-.756-10.944-5.377-4.683-8.461-11.458-8.461-18.588s3.084-13.905 8.461-18.588z"/><path d="m130.749 263.717c8.762-7.63 13.787-18.669 13.788-30.287 0-11.618-5.025-22.658-13.788-30.288-3.23-2.813-8.13-2.475-10.944.756-2.813 3.231-2.475 8.131.756 10.944 5.377 4.682 8.462 11.457 8.462 18.588s-3.084 13.906-8.462 18.588c-8.762 7.63-13.787 18.669-13.787 30.287s5.025 22.658 13.787 30.289c1.47 1.28 3.284 1.907 5.091 1.907 2.165 0 4.319-.902 5.853-2.663 2.813-3.231 2.475-8.131-.756-10.944-5.377-4.682-8.462-11.458-8.462-18.588.001-7.131 3.085-13.906 8.462-18.589z"/><path d="m218.446 262.961c2.814-3.231 2.475-8.131-.756-10.944-5.377-4.682-8.461-11.458-8.461-18.588s3.084-13.906 8.461-18.588c8.762-7.63 13.787-18.669 13.788-30.287 0-11.618-5.025-22.658-13.788-30.288-3.23-2.813-8.13-2.475-10.944.756s-2.475 8.131.756 10.944c5.378 4.683 8.462 11.457 8.462 18.588s-3.084 13.906-8.462 18.588c-8.762 7.63-13.787 18.669-13.787 30.287s5.025 22.658 13.787 30.288c1.47 1.28 3.284 1.907 5.091 1.907 2.165 0 4.32-.902 5.853-2.663z"/></g></g></g></svg>